# xmcd
#
# Track frame offsets:
#	150
#	18597
#	35673
#	51027
#	68283
#	85508
#	102707
#	118351
#	138612
#	161791
#	178737
#	196322
#	220756
#	238602
#	257874
#
# Disc length: 3682 seconds
#
# Revision: 0
# Processed by: cddbd v1.5.2PL0 Copyright (c) Steve Scherf et al.
# Submitted via: audiograbber 1.83.01
#
DISCID=da0e600f
DTITLE=Chartbuster Country  - August 2008
DYEAR=2008
DGENRE=
TTITLE0=Billy Currington - Don't
TTITLE1=Phil Vasser - I Would
TTITLE2=Gretchen Wilson - Don't Do Me No Good
TTITLE3=Toby Keith - She Never Cried In Front Of Me
TTITLE4=Lee Brice - Upper Middle Class White Trash
TTITLE5=Trisha Yearwood - They Call It Falling For A Reason
TTITLE6=Adam Gregory - Crazy Days
TTITLE7=Steve Holy - Might Have Been
TTITLE8=Carrie Underwood - Just A Dream
TTITLE9=Zac Brown Band - Chicken Fried
TTITLE10=Pat Green - Let Me
TTITLE11=Leann Rimes - What I Cannot Change
TTITLE12=J. Bates - Riverbank
TTITLE13=David Nail - I'm About To Come Alive
TTITLE14=Rissi Palmer - No Air
EXTD=
EXTT0=
EXTT1=
EXTT2=
EXTT3=
EXTT4=
EXTT5=
EXTT6=
EXTT7=
EXTT8=
EXTT9=
EXTT10=
EXTT11=
EXTT12=
EXTT13=
EXTT14=
PLAYORDER=
